# xmcd
#
# Track frame offsets: 
#        150
#        18877
#        35887
#        59011
#        78161
#        92508
#        110460
#        127477
#        149917
#        164025
#
# Disc length: 2355 seconds
#
# Revision: 0
# Processed by: cddbd v1.5.2PL0 Copyright (c) Steve Scherf et al.
# Submitted via: ExactAudioCopyFreeDBPlugin 1.0
#
DISCID=9609310a
DTITLE=Thompson, Verlon - Live at the Ivey's [CD2]
DYEAR=2006
DGENRE=Country
TTITLE0=Gimme a Ride to Heaven Boy
TTITLE1=Indian Head Penny
TTITLE2=Analog Girl - Running Out of Memory
TTITLE3=Randall Knife
TTITLE4=Gone but Not Forgotten
TTITLE5=Carolina in My Mind
TTITLE6=I Will Come Back Again
TTITLE7=Boats to Build
TTITLE8=Close but No Guitar
TTITLE9=Tootsie Roll
EXTD=
EXTT0=
EXTT1=
EXTT2=
EXTT3=
EXTT4=
EXTT5=
EXTT6=
EXTT7=
EXTT8=
EXTT9=
PLAYORDER=
